REM DIRINDEX 1\5,1\2\6,1\2\7,1\3\8,1\3\9,1\4\10,1\4\11,1\4\12
REM DIRNAME cjc026,folder01,folder02,folder03,folder04,folder05,folder06,folder07,folder08,folder09,folder10,folder11
TITLE ""
FILE "EJE_DB3000_5th_4B_42.mp3" MP3
  TRACK 01 AUDIO
    TITLE "0:"
    INDEX 01 00:00:00
  TRACK 02 AUDIO
    TITLE "10:cjc026_09807"
    INDEX 01 00:00:08
  TRACK 03 AUDIO
    TITLE "0:"
    INDEX 01 00:01:24
  TRACK 04 AUDIO
    TITLE "11:cjc026_09808"
    INDEX 01 00:01:57
  TRACK 05 AUDIO
    TITLE "0:"
    INDEX 01 00:03:18
  TRACK 06 AUDIO
    TITLE "12:cjc026_09809"
    INDEX 01 00:03:53
  TRACK 07 AUDIO
    TITLE "0:"
    INDEX 01 00:04:69
  TRACK 08 AUDIO
    TITLE "10:cjc026_09810"
    INDEX 01 00:05:30
  TRACK 09 AUDIO
    TITLE "0:"
    INDEX 01 00:06:46
  TRACK 10 AUDIO
    TITLE "11:cjc026_09811"
    INDEX 01 00:07:06
  TRACK 11 AUDIO
    TITLE "0:"
    INDEX 01 00:08:37
  TRACK 12 AUDIO
    TITLE "12:cjc026_09812"
    INDEX 01 00:08:72
  TRACK 13 AUDIO
    TITLE "0:"
    INDEX 01 00:10:11
  TRACK 14 AUDIO
    TITLE "10:cjc026_09813"
    INDEX 01 00:10:49
  TRACK 15 AUDIO
    TITLE "0:"
    INDEX 01 00:11:63
  TRACK 16 AUDIO
    TITLE "11:cjc026_09814"
    INDEX 01 00:12:26
  TRACK 17 AUDIO
    TITLE "0:"
    INDEX 01 00:13:48
  TRACK 18 AUDIO
    TITLE "12:cjc026_09815"
    INDEX 01 00:14:11
  TRACK 19 AUDIO
    TITLE "0:"
    INDEX 01 00:15:22
  TRACK 20 AUDIO
    TITLE "10:cjc026_09816"
    INDEX 01 00:15:60
  TRACK 21 AUDIO
    TITLE "0:"
    INDEX 01 00:16:69
  TRACK 22 AUDIO
    TITLE "11:cjc026_09817"
    INDEX 01 00:17:34
  TRACK 23 AUDIO
    TITLE "0:"
    INDEX 01 00:18:45
  TRACK 24 AUDIO
    TITLE "12:cjc026_09818"
    INDEX 01 00:19:05
  TRACK 25 AUDIO
    TITLE "0:"
    INDEX 01 00:20:14
  TRACK 26 AUDIO
    TITLE "10:cjc026_09819"
    INDEX 01 00:20:55
  TRACK 27 AUDIO
    TITLE "0:"
    INDEX 01 00:22:10
  TRACK 28 AUDIO
    TITLE "11:cjc026_09820"
    INDEX 01 00:22:42
  TRACK 29 AUDIO
    TITLE "0:"
    INDEX 01 00:23:65
  TRACK 30 AUDIO
    TITLE "12:cjc026_09821"
    INDEX 01 00:24:22
  TRACK 31 AUDIO
    TITLE "0:"
    INDEX 01 00:25:52
  TRACK 32 AUDIO
    TITLE "10:cjc026_09822"
    INDEX 01 00:26:12
  TRACK 33 AUDIO
    TITLE "0:"
    INDEX 01 00:27:29
  TRACK 34 AUDIO
    TITLE "11:cjc026_09823"
    INDEX 01 00:27:62
  TRACK 35 AUDIO
    TITLE "0:"
    INDEX 01 00:29:01
  TRACK 36 AUDIO
    TITLE "12:cjc026_09824"
    INDEX 01 00:29:36
  TRACK 37 AUDIO
    TITLE "0:"
    INDEX 01 00:30:53
  TRACK 38 AUDIO
    TITLE "10:cjc026_09825"
    INDEX 01 00:31:13
  TRACK 39 AUDIO
    TITLE "0:"
    INDEX 01 00:32:32
  TRACK 40 AUDIO
    TITLE "11:cjc026_09826"
    INDEX 01 00:32:67
  TRACK 41 AUDIO
    TITLE "0:"
    INDEX 01 00:34:12
  TRACK 42 AUDIO
    TITLE "12:cjc026_09827"
    INDEX 01 00:34:50
  TRACK 43 AUDIO
    TITLE "0:"
    INDEX 01 00:35:69
  TRACK 44 AUDIO
    TITLE "10:cjc026_09828"
    INDEX 01 00:36:29
  TRACK 45 AUDIO
    TITLE "0:"
    INDEX 01 00:37:54
  TRACK 46 AUDIO
    TITLE "11:cjc026_09829"
    INDEX 01 00:38:20
  TRACK 47 AUDIO
    TITLE "0:"
    INDEX 01 00:39:69
  TRACK 48 AUDIO
    TITLE "12:cjc026_09830"
    INDEX 01 00:40:26
  TRACK 49 AUDIO
    TITLE "0:"
    INDEX 01 00:41:54
  TRACK 50 AUDIO
    TITLE "10:cjc026_09831"
    INDEX 01 00:42:17
  TRACK 51 AUDIO
    TITLE "0:"
    INDEX 01 00:43:28
  TRACK 52 AUDIO
    TITLE "11:cjc026_09832"
    INDEX 01 00:43:69
  TRACK 53 AUDIO
    TITLE "0:"
    INDEX 01 00:45:27
  TRACK 54 AUDIO
    TITLE "12:cjc026_09833"
    INDEX 01 00:45:62
  TRACK 55 AUDIO
    TITLE "0:"
    INDEX 01 00:47:01
  TRACK 56 AUDIO
    TITLE "10:cjc026_09834"
    INDEX 01 00:47:39
  TRACK 57 AUDIO
    TITLE "0:"
    INDEX 01 00:48:58
  TRACK 58 AUDIO
    TITLE "11:cjc026_09835"
    INDEX 01 00:49:21
  TRACK 59 AUDIO
    TITLE "0:"
    INDEX 01 00:50:59
  TRACK 60 AUDIO
    TITLE "12:cjc026_09836"
    INDEX 01 00:51:22
  TRACK 61 AUDIO
    TITLE "0:"
    INDEX 01 00:52:44
  TRACK 62 AUDIO
    TITLE "10:cjc026_09837"
    INDEX 01 00:53:07
  TRACK 63 AUDIO
    TITLE "0:"
    INDEX 01 00:54:32
  TRACK 64 AUDIO
    TITLE "11:cjc026_09838"
    INDEX 01 00:54:64
  TRACK 65 AUDIO
    TITLE "0:"
    INDEX 01 00:56:28
  TRACK 66 AUDIO
    TITLE "12:cjc026_09839"
    INDEX 01 00:56:63
  TRACK 67 AUDIO
    TITLE "0:"
    INDEX 01 00:58:10
  TRACK 68 AUDIO
    TITLE "10:cjc026_09840"
    INDEX 01 00:58:48
  TRACK 69 AUDIO
    TITLE "0:"
    INDEX 01 01:00:22
  TRACK 70 AUDIO
    TITLE "11:cjc026_09841"
    INDEX 01 01:00:60
  TRACK 71 AUDIO
    TITLE "0:"
    INDEX 01 01:02:18
  TRACK 72 AUDIO
    TITLE "12:cjc026_09842"
    INDEX 01 01:02:56
  TRACK 73 AUDIO
    TITLE "0:"
    INDEX 01 01:04:30
  TRACK 74 AUDIO
    TITLE "10:cjc026_09843"
    INDEX 01 01:04:70
  TRACK 75 AUDIO
    TITLE "0:"
    INDEX 01 01:06:15
  TRACK 76 AUDIO
    TITLE "11:cjc026_09844"
    INDEX 01 01:06:53
  TRACK 77 AUDIO
    TITLE "0:"
    INDEX 01 01:08:03
  TRACK 78 AUDIO
    TITLE "12:cjc026_09845"
    INDEX 01 01:08:38
  TRACK 79 AUDIO
    TITLE "0:"
    INDEX 01 01:09:57
